<svg width="86" height="86" viewBox="0 0 86 86" fill="none" xmlns="http://www.w3.org/2000/svg">
<path d="M4.27313 7.32343H81.7336V59.4072H4.27313V7.32343Z" fill="url(#paint0_linear_274_3328)"/>
<path d="M80.148 8.90907V57.8283H5.85203V8.90907H80.148ZM83.3125 5.74454H2.6875V60.9928H83.3125V5.74454Z" fill="url(#paint1_linear_274_3328)"/>
<path d="M43 60.9928H36.6172V68.2692C36.6172 71.5614 39.2173 74.2287 42.4155 74.2287H43.5778C46.7827 74.2287 49.3761 71.5614 49.3761 68.2692V60.9928H43Z" fill="#E59600"/>
<path d="M55.5641 65.313C52.89 64.8561 50.1084 64.5605 47.3 64.4127L45.4927 66.3544L43.0403 68.9949L40.5745 66.3477L38.7672 64.4059C35.9587 64.5403 33.1772 64.8091 30.4964 65.2256C18.1809 67.1405 8.0625 72.1325 8.0625 81.1289V83.2991H77.9375V81.1289C77.9375 72.6364 67.893 67.3756 55.5641 65.313Z" fill="url(#paint2_linear_274_3328)"/>
<path d="M69.9489 83.2991H15.48C15.6614 79.1738 16.3467 74.0138 18.2212 68.6186C18.2212 68.6186 19.6254 67.9064 21.9031 67.1002C22.6086 66.8448 23.4014 66.5828 24.2614 66.3342C26.0754 65.7967 28.1986 65.3063 30.4628 65.0375L32.082 74.7998L42.6103 69.277H43.4636L53.9919 74.7998L55.6111 65.0375C62.3903 65.8438 67.8526 68.6186 67.8526 68.6186C69.7272 74.0138 70.1169 79.1738 69.9489 83.2991Z" fill="url(#paint3_linear_274_3328)"/>
<path d="M24.2614 66.3342C22.4003 72.9052 21.5202 79.6844 21.3455 83.2991H19.3164C19.4642 79.812 20.2302 73.483 21.9031 67.1002C22.6086 66.8449 23.4014 66.5828 24.2614 66.3342Z" fill="url(#paint4_linear_274_3328)"/>
<path d="M66.6836 83.2991C66.5291 79.7045 65.6287 73.53 63.8483 66.9725L61.4833 66.2334C63.4519 72.9858 64.4731 79.5769 64.6545 83.2991H66.6836Z" fill="url(#paint5_linear_274_3328)"/>
<path d="M49.7927 61.7319L47.3 64.4127L46.4064 65.3734L45.4927 66.3544L43.0403 68.9948L40.5745 66.3477L39.6675 65.3734L38.7672 64.4059L36.2813 61.7319L30.4628 65.0375L30.4964 65.2256L30.6644 66.2402L30.8256 67.2211L32.082 74.7998L43.0403 69.0553L53.9919 74.7998L55.2349 67.3017L55.4028 66.3006L55.5641 65.313L55.6111 65.0375L49.7927 61.7319Z" fill="url(#paint6_linear_274_3328)"/>
<path d="M67.846 83.2991L68.37 81.485L68.7933 80.0203L68.753 80.0069L68.7597 79.9733L67.7183 79.6776L68.8202 75.8345C68.8874 75.5994 68.8806 75.3642 68.8202 75.1492C68.8202 75.1425 68.8135 75.1291 68.8135 75.1223C68.8086 75.0985 68.7995 75.0757 68.7866 75.0552C68.6724 74.6923 68.4103 74.4034 68.0542 74.2959L67.9535 74.2691H67.9467L65.4272 73.5434L41.9519 66.7978C41.9183 66.7911 41.8914 66.7911 41.8646 66.7776C40.8154 66.5015 39.6998 66.6471 38.7567 67.1833C37.8136 67.7195 37.118 68.6037 36.8188 69.6466L35.8513 73.0261C35.7841 73.2545 35.7102 73.5031 35.6296 73.7719L34.7427 76.8692L32.895 83.3058L67.846 83.2991Z" fill="url(#paint7_linear_274_3328)"/>
<path d="M68.7194 83.2991L71.0508 75.1627C71.2456 74.4841 70.8559 73.7786 70.1773 73.5905L44.1825 66.1327C43.1232 65.8298 41.987 65.9597 41.0233 66.4938C40.0596 67.0279 39.3473 67.9226 39.0427 68.9814L34.9375 83.2991H68.7194Z" fill="#424242"/>
<path d="M69.8884 83.2991L70.6006 80.8266C70.8358 80.0069 70.3453 79.1469 69.5122 78.9117L41.6159 70.9164C38.5723 70.043 38.0416 72.4953 37.1883 75.4717L34.9442 83.2991H69.8884Z" fill="url(#paint8_linear_274_3328)"/>
<path opacity="0.2" d="M43.2217 68.2423C43.3426 68.2423 43.477 68.2558 43.6181 68.2894L68.6455 75.4784L68.4372 76.2041C60.5158 73.9936 45.3986 69.7406 42.2744 68.7059C42.4356 68.4842 42.7514 68.2423 43.2217 68.2423ZM43.2217 66.005C40.1848 66.005 38.6664 69.7474 41.1255 70.6678C43.8331 71.6756 69.969 78.9453 69.969 78.9453L71.0306 75.2366C71.2389 74.5244 70.903 73.7988 70.2848 73.6241L44.1892 66.1259C43.8533 66.0453 43.5308 66.005 43.2217 66.005Z" fill="#424242"/>
<path d="M69.4517 75.3306L42.7111 67.6578C41.9855 67.4495 41.1927 67.9669 40.9508 68.8067L40.9105 68.9545C40.6686 69.7944 41.065 70.6544 41.7906 70.8626L68.5313 78.5355C68.5313 78.5355 68.3028 77.9778 68.5783 76.9901C68.8538 75.9958 69.4517 75.3306 69.4517 75.3306Z" fill="url(#paint9_linear_274_3328)"/>
<mask id="mask0_274_3328" style="mask-type:luminance" maskUnits="userSpaceOnUse" x="34" y="70" width="38" height="14">
<path d="M70.997 79.3014L41.0986 70.7955C38.7269 70.1236 38.4783 70.9433 37.8669 73.1L34.9509 83.2991H71.333L70.997 79.3014Z" fill="white"/>
</mask>
<g mask="url(#mask0_274_3328)">
<path d="M37.5376 83.299L42.7514 65.1383L38.4312 63.8953L32.8614 83.299H37.5376Z" fill="url(#paint10_linear_274_3328)"/>
</g>
<path d="M61.3624 33.8827H24.6377C20.6803 33.8827 17.4419 37.3361 17.4419 41.5488C17.4419 45.7614 20.6803 49.2148 24.6377 49.2148H61.3556C65.313 49.2148 68.5514 45.7614 68.5514 41.5488C68.5514 37.3361 65.3197 33.8827 61.3624 33.8827Z" fill="#E59600"/>
<path d="M43 7.43765C31.3094 7.43765 20.4788 19.9412 20.4788 37.9408C20.4788 55.8395 31.6386 64.6881 43 64.6881C54.3614 64.6881 65.5213 55.8328 65.5213 37.9341C65.5213 19.9412 54.6906 7.43765 43 7.43765Z" fill="#FFCA28"/>
<path d="M32.3777 42.9395C34.207 42.9395 35.69 41.4054 35.69 39.513C35.69 37.6205 34.207 36.0864 32.3777 36.0864C30.5483 36.0864 29.0653 37.6205 29.0653 39.513C29.0653 41.4054 30.5483 42.9395 32.3777 42.9395Z" fill="#404040"/>
<path d="M53.2998 42.9395C55.1292 42.9395 56.6122 41.4054 56.6122 39.513C56.6122 37.6205 55.1292 36.0864 53.2998 36.0864C51.4705 36.0864 49.9875 37.6205 49.9875 39.513C49.9875 41.4054 51.4705 42.9395 53.2998 42.9395Z" fill="#404040"/>
<path d="M45.5934 45.7278C45.5195 45.7009 45.4523 45.6808 45.3784 45.6741H40.6215C40.5476 45.6808 40.4737 45.7009 40.4065 45.7278C39.9765 45.9025 39.7414 46.3459 39.9429 46.823C40.1445 47.3 41.0919 48.6303 43 48.6303C44.9081 48.6303 45.8554 47.2933 46.057 46.823C46.2586 46.3459 46.0234 45.9025 45.5934 45.7278Z" fill="#E59600"/>
<path d="M48.7311 51.1566C46.5945 52.4264 39.5734 52.4264 37.4369 51.1566C36.2074 50.4242 34.9509 51.5463 35.4616 52.6616C35.9655 53.7567 39.7884 56.3031 43.1008 56.3031C46.4131 56.3031 50.1891 53.7567 50.693 52.6616C51.1969 51.5463 49.9606 50.4242 48.7311 51.1566Z" fill="#795548"/>
<path d="M26.8817 34.0775C28.8906 31.2355 33.4526 30.9667 36.0662 33.0831C36.4828 33.4191 37.0337 33.8894 37.195 34.4134C37.4637 35.2667 36.644 35.9319 35.8445 35.7303C35.3339 35.6026 34.8569 35.3272 34.3529 35.1726C33.4325 34.8837 32.7673 34.8031 31.9409 34.8031C30.7181 34.7964 29.932 34.9509 28.7697 35.4212C28.2926 35.6161 27.9029 35.9251 27.3587 35.6967C26.7339 35.4414 26.4987 34.6419 26.8817 34.0775ZM57.8283 35.6967C57.6334 35.6094 57.4453 35.5019 57.2504 35.4212C56.0545 34.9241 55.3759 34.7964 54.0792 34.8031C52.937 34.8098 52.2584 34.9644 51.3648 35.2667C50.8206 35.4548 50.1286 35.9251 49.5239 35.7437C48.637 35.475 48.6639 34.5075 49.1476 33.8894C49.7254 33.1637 50.5183 32.6128 51.3581 32.25C53.3065 31.4034 55.685 31.5244 57.5192 32.6195C58.1172 32.9756 58.7689 33.4661 59.1317 34.0842C59.6558 34.9576 58.8629 36.12 57.8283 35.6967Z" fill="#6D4C41"/>
<path d="M43 2.70764H42.9732C12.4499 2.86889 18.705 37.7392 18.705 37.7392C18.705 37.7392 20.0757 41.3337 20.7005 42.9194C20.7878 43.1478 21.1238 43.1209 21.1775 42.8858C21.8292 39.9698 24.1741 29.6297 25.3566 26.4853C25.6944 25.5894 26.3365 24.8408 27.1704 24.3704C28.0044 23.9 28.9771 23.7377 29.9186 23.912C32.9085 24.4562 37.6788 25.1281 42.9328 25.1281H43.0403C48.2944 25.1281 53.0647 24.4562 56.0546 23.912C58.003 23.5559 59.9246 24.6376 60.6166 26.4853C61.7924 29.6162 64.1238 39.8959 64.7822 42.8522C64.836 43.0941 65.1719 43.1142 65.2593 42.8858L67.2614 37.7325C67.2749 37.7392 73.53 2.86889 43 2.70764Z" fill="#543930"/>
<path d="M67.2749 37.7392C67.2749 37.7392 73.53 2.86889 43 2.70764H42.9731C42.4961 2.70764 42.0325 2.72108 41.5756 2.74124C40.6686 2.78155 39.7885 2.84874 38.9419 2.94952H38.915C38.8545 2.95624 38.8008 2.96967 38.7403 2.97639C13.0478 6.20811 18.705 37.7392 18.705 37.7392L20.7072 42.8992C20.7945 43.1276 21.1238 43.1075 21.1775 42.8656C21.836 39.9161 24.1741 29.623 25.3566 26.492C25.6944 25.5961 26.3365 24.8475 27.1704 24.3771C28.0044 23.9067 28.9771 23.7445 29.9186 23.9187C32.9085 24.463 37.6788 25.1348 42.9328 25.1348H43.0403C48.2944 25.1348 53.0647 24.463 56.0545 23.9187C58.003 23.5626 59.9245 24.6444 60.6166 26.492C61.7991 29.6364 64.1439 39.9967 64.7889 42.8992C64.8427 43.1411 65.1719 43.1612 65.2592 42.9328C65.8975 41.3472 67.2749 37.7392 67.2749 37.7392Z" fill="url(#paint11_radial_274_3328)"/>
<path d="M63.1092 35.5623C63.0622 34.7628 63.0286 34.6822 61.9737 34.3462C61.1473 34.0842 56.6323 33.7147 53.2326 33.9028C52.9908 33.9162 52.7556 33.9297 52.5339 33.9498C49.45 34.2119 45.7479 35.4548 42.9664 35.522C41.7839 35.5489 36.9128 34.2723 33.4661 34.0036C33.2444 33.9902 33.0226 33.97 32.7942 33.9633C29.3878 33.7886 24.8526 34.185 24.0262 34.4537C22.9714 34.7964 22.9378 34.877 22.8975 35.6766C22.8504 36.4694 22.9848 37.1547 23.6097 37.363C24.4629 37.6452 24.4697 38.7067 25.0408 41.757C25.5581 44.5386 26.8011 46.7356 32.1425 47.1186C32.3709 47.132 32.5859 47.1455 32.8009 47.1455C37.5242 47.2127 39.1501 44.1019 39.6876 43.0672C40.6887 41.1456 40.3729 38.4984 43.0201 38.4917C45.6606 38.485 45.412 41.0852 46.4265 43C46.9708 44.028 48.5564 47.1522 53.2394 47.085C53.4678 47.085 53.7029 47.0716 53.9448 47.0514C59.2795 46.6348 60.5158 44.4311 61.0129 41.6495C61.5639 38.5925 61.5706 37.5242 62.4172 37.242C63.0286 37.0405 63.1562 36.3619 63.1092 35.5623ZM35.8579 45.8017C35.0383 46.1847 33.9431 46.3795 32.7875 46.3795C30.3754 46.3728 27.7014 45.5262 26.7339 43.8197C25.3633 41.3875 25.0072 36.4694 26.754 35.4414C27.52 34.9912 30.1067 34.6822 32.7808 34.7964C35.5556 34.9173 38.4245 35.4952 39.4592 36.8523C41.1792 39.0897 38.4514 44.5789 35.8579 45.8017ZM59.3064 43.7189C58.3456 45.4389 55.6514 46.3056 53.2259 46.3123C52.0837 46.3191 51.002 46.1309 50.1958 45.7547C47.5956 44.5453 44.8409 39.0762 46.534 36.8255C47.562 35.4548 50.4444 34.8636 53.2259 34.7292C55.8933 34.6016 58.4733 34.8972 59.2325 35.3406C60.9928 36.3619 60.6636 41.28 59.3064 43.7189Z" fill="#212121" stroke="#212121" stroke-width="0.06875" stroke-miterlimit="10"/>
<defs>
<linearGradient id="paint0_linear_274_3328" x1="42.9993" y1="7.656" x2="42.9993" y2="59.4535" gradientUnits="userSpaceOnUse">
<stop stop-color="#26A69A"/>
<stop offset="1" stop-color="#00796B"/>
</linearGradient>
<linearGradient id="paint1_linear_274_3328" x1="42.9993" y1="5.74118" x2="42.9993" y2="60.9901" gradientUnits="userSpaceOnUse">
<stop stop-color="#8D6E63"/>
<stop offset="0.779" stop-color="#795548"/>
</linearGradient>
<linearGradient id="paint2_linear_274_3328" x1="43" y1="64.5511" x2="43" y2="82.5513" gradientUnits="userSpaceOnUse">
<stop stop-color="#E1F5FE"/>
<stop offset="1" stop-color="#81D4FA"/>
</linearGradient>
<linearGradient id="paint3_linear_274_3328" x1="42.7319" y1="65.0375" x2="42.7319" y2="82.7562" gradientUnits="userSpaceOnUse">
<stop stop-color="#00BFA5"/>
<stop offset="1" stop-color="#00AB94"/>
</linearGradient>
<linearGradient id="paint4_linear_274_3328" x1="21.7889" y1="63.9901" x2="21.7889" y2="82.6729" gradientUnits="userSpaceOnUse">
<stop stop-color="#B2DFDB" stop-opacity="0.2"/>
<stop offset="0.767" stop-color="#B2DFDB" stop-opacity="0.6"/>
</linearGradient>
<linearGradient id="paint5_linear_274_3328" x1="64.0854" y1="63.8758" x2="64.0854" y2="82.6709" gradientUnits="userSpaceOnUse">
<stop stop-color="#B2DFDB" stop-opacity="0.2"/>
<stop offset="0.767" stop-color="#B2DFDB" stop-opacity="0.6"/>
</linearGradient>
<linearGradient id="paint6_linear_274_3328" x1="43.037" y1="77.738" x2="43.037" y2="62.3607" gradientUnits="userSpaceOnUse">
<stop stop-color="#E1F5FE"/>
<stop offset="1" stop-color="#81D4FA"/>
</linearGradient>
<linearGradient id="paint7_linear_274_3328" x1="53.1783" y1="71.812" x2="48.9233" y2="89.7289" gradientUnits="userSpaceOnUse">
<stop offset="0.002" stop-color="#212121" stop-opacity="0.2"/>
<stop offset="1" stop-color="#212121" stop-opacity="0.6"/>
</linearGradient>
<linearGradient id="paint8_linear_274_3328" x1="55.0185" y1="74.4041" x2="51.5476" y2="86.0497" gradientUnits="userSpaceOnUse">
<stop stop-color="#EF5350"/>
<stop offset="1" stop-color="#E53935"/>
</linearGradient>
<linearGradient id="paint9_linear_274_3328" x1="40.9331" y1="68.8789" x2="68.9899" y2="76.9304" gradientUnits="userSpaceOnUse">
<stop offset="0.01" stop-color="#BDBDBD"/>
<stop offset="0.987" stop-color="#F5F5F5"/>
</linearGradient>
<linearGradient id="paint10_linear_274_3328" x1="35.3104" y1="81.9996" x2="38.2498" y2="72.7614" gradientUnits="userSpaceOnUse">
<stop stop-color="#212121"/>
<stop offset="1" stop-color="#424242"/>
</linearGradient>
<radialGradient id="paint11_radial_274_3328" cx="0" cy="0" r="1" gradientUnits="userSpaceOnUse" gradientTransform="translate(42.9886 31.6436) scale(25.5937 28.8749)">
<stop offset="0.794" stop-color="#6D4C41" stop-opacity="0"/>
<stop offset="1" stop-color="#6D4C41"/>
</radialGradient>
</defs>
</svg>
