<svg width="86" height="86" viewBox="0 0 86 86" fill="none" xmlns="http://www.w3.org/2000/svg">
<path d="M49.5575 59.8506H36.4358V72.838C36.4358 76.0965 39.1099 78.737 42.4021 78.737H43.5913C46.8835 78.737 49.5575 76.0965 49.5575 72.838V59.8506ZM61.3624 33.8692H24.6377C20.6803 33.8692 17.4419 37.3226 17.4419 41.5353C17.4419 45.7547 20.6803 49.2014 24.6377 49.2014H61.3556C65.313 49.2014 68.5514 45.748 68.5514 41.5353C68.5581 37.3226 65.3197 33.8692 61.3624 33.8692Z" fill="#E59600"/>
<path d="M43 7.42422C31.3094 7.42422 20.4788 19.9278 20.4788 37.9206C20.4788 55.8194 31.6386 64.668 43 64.668C54.3614 64.668 65.5213 55.8194 65.5213 37.9206C65.5213 19.9278 54.6906 7.42422 43 7.42422Z" fill="#FFCA28"/>
<path d="M31.9544 42.9261C33.7837 42.9261 35.2667 41.392 35.2667 39.4995C35.2667 37.6071 33.7837 36.073 31.9544 36.073C30.125 36.073 28.642 37.6071 28.642 39.4995C28.642 41.392 30.125 42.9261 31.9544 42.9261Z" fill="#404040"/>
<path d="M54.0456 42.9261C55.875 42.9261 57.358 41.392 57.358 39.4995C57.358 37.6071 55.875 36.073 54.0456 36.073C52.2163 36.073 50.7333 37.6071 50.7333 39.4995C50.7333 41.392 52.2163 42.9261 54.0456 42.9261Z" fill="#404040"/>
<path d="M45.5934 45.7144C45.5195 45.6875 45.4523 45.6673 45.3784 45.6606H40.6283C40.5543 45.6673 40.4804 45.6875 40.4133 45.7144C39.9833 45.8891 39.7481 46.3325 39.9497 46.8095C40.1512 47.2866 41.0986 48.6169 43.0067 48.6169C44.9148 48.6169 45.8622 47.2798 46.0637 46.8095C46.2586 46.3325 46.0234 45.8891 45.5934 45.7144Z" fill="#E59600"/>
<path d="M48.6572 51.1431C46.5139 52.413 39.4995 52.413 37.363 51.1431C36.1334 50.4108 34.877 51.5328 35.3877 52.6481C35.8916 53.7433 39.7212 56.2897 43.0269 56.2897C46.3325 56.2897 50.1152 53.7433 50.6191 52.6481C51.123 51.5328 49.8867 50.4108 48.6572 51.1431Z" fill="#795548"/>
<path d="M43.0134 3.37952H42.9865C12.4565 3.54077 18.7117 37.0673 18.7117 37.0673C18.7117 37.0673 20.0823 40.6619 20.7072 42.2475C20.7945 42.4759 21.1305 42.4491 21.1842 42.2139C21.8359 39.298 24.1808 28.9578 25.3633 25.8134C25.7011 24.9175 26.3431 24.1689 27.1771 23.6985C28.011 23.2281 28.9838 23.0659 29.9253 23.2401C32.9219 23.7844 37.6854 24.4562 42.9462 24.4562H43.0537C48.3078 24.4562 53.0781 23.7844 56.0679 23.2401C58.0164 22.884 59.938 23.9658 60.63 25.8134C61.8058 28.9444 64.1372 39.2241 64.7956 42.1803C64.8494 42.4222 65.1853 42.4423 65.2726 42.2139L67.2748 37.0606C67.2883 37.0673 73.5367 3.54077 43.0134 3.37952Z" fill="#543930"/>
<path d="M67.2883 37.0673C67.2883 37.0673 73.5434 3.54077 43.0134 3.37952H42.9865C42.5095 3.37952 42.0459 3.39295 41.589 3.41311C40.682 3.45342 39.8018 3.52061 38.9553 3.62139H38.9284C38.8679 3.62811 38.8142 3.64155 38.7537 3.64827C13.0545 6.87999 18.705 37.0673 18.705 37.0673L20.7072 42.2273C20.7945 42.4558 21.1237 42.4356 21.1775 42.1937C21.8359 39.2442 24.174 28.9511 25.3565 25.8201C25.6951 24.9233 26.3383 24.1741 27.1735 23.7037C28.0088 23.2333 28.9828 23.0716 29.9253 23.2469C32.9218 23.7844 37.6854 24.4562 42.9462 24.4562H43.0537C48.3078 24.4562 53.0781 23.7844 56.0679 23.2401C58.0164 22.884 59.9379 23.9658 60.63 25.8134C61.8125 28.9578 64.1573 39.3181 64.8023 42.2206C64.8561 42.4625 65.1853 42.4826 65.2726 42.2542C65.9042 40.6753 67.2883 37.0673 67.2883 37.0673Z" fill="url(#paint0_radial_274_3360)"/>
<path d="M78.2734 36.4694C77.4403 36.4694 76.7617 37.1144 76.7617 37.9072V44.0884C76.7617 44.8812 77.4403 45.5262 78.2734 45.5262C79.1066 45.5262 79.7852 44.8812 79.7852 44.0884V37.9072C79.7852 37.1144 79.1066 36.4694 78.2734 36.4694ZM75.25 36.4694C74.4169 36.4694 73.7383 37.1144 73.7383 37.9072V44.0884C73.7383 44.8812 74.4169 45.5262 75.25 45.5262C76.0831 45.5262 76.7617 44.8812 76.7617 44.0884V37.9072C76.7617 37.1144 76.0831 36.4694 75.25 36.4694Z" fill="#E8AD00"/>
<path d="M76.7617 36.4694C75.9286 36.4694 75.25 37.1144 75.25 37.9072V45.4255C75.25 46.2183 75.9286 46.8633 76.7617 46.8633C77.5948 46.8633 78.2734 46.2183 78.2734 45.4255V37.9072C78.2734 37.1144 77.5948 36.4694 76.7617 36.4694Z" fill="#FFCA28"/>
<path d="M76.7617 37.41C77.7859 37.41 78.6161 36.6189 78.6161 35.643C78.6161 34.6671 77.7859 33.8759 76.7617 33.8759C75.7376 33.8759 74.9073 34.6671 74.9073 35.643C74.9073 36.6189 75.7376 37.41 76.7617 37.41Z" fill="#FFCA28"/>
<path d="M76.7617 35.6228C76.3922 35.6228 76.0898 35.3205 76.0898 34.9509V9.41968C76.0898 9.05015 76.3922 8.7478 76.7617 8.7478C77.1313 8.7478 77.4336 9.05015 77.4336 9.41968V34.9509C77.4336 35.3272 77.1313 35.6228 76.7617 35.6228Z" fill="#504F4F"/>
<path d="M77.9375 8.72095C57.2236 3.51392 43 3.34595 43 3.34595C43 3.34595 28.7764 3.51392 8.0625 8.72095V9.23829C8.0625 10.1319 8.64703 10.918 9.50031 11.1666C11.9997 11.9056 18.322 13.5383 21.715 14.2169C21.6613 14.2706 20.9759 15.4733 20.4855 16.5886C20.4855 16.5886 25.9545 20.4317 43.0067 22.1517C60.0589 20.4317 65.6892 17.0589 65.6892 17.0589C65.098 15.8428 64.4866 14.7141 64.4866 14.7141C67.51 14.2169 74.0473 11.9795 76.5467 11.18C77.3866 10.9113 77.9509 10.1386 77.9509 9.25845V8.72095H77.9375Z" fill="url(#paint1_linear_274_3360)"/>
<path d="M43 3.34595C43 3.34595 28.7764 3.51392 8.0625 8.72095C8.0625 8.72095 31.8536 15.218 43 15.0231C54.1464 15.218 77.9375 8.72095 77.9375 8.72095C57.2236 3.51392 43 3.34595 43 3.34595Z" fill="url(#paint2_linear_274_3360)"/>
<path opacity="0.4" d="M77.9375 8.72095C57.2236 3.51392 43 3.34595 43 3.34595C43 3.34595 28.7764 3.51392 8.0625 8.72095V9.23829C8.0625 10.1319 8.64703 10.918 9.50031 11.1666C11.9997 11.9056 18.322 13.6458 21.715 14.3311C21.715 14.3311 21.07 15.3792 20.4855 16.7028C20.4855 16.7028 25.9545 20.4317 43.0067 22.1584C60.0589 20.4384 65.6892 17.0656 65.6892 17.0656C65.098 15.8495 64.4866 14.7208 64.4866 14.7208C67.51 14.2236 74.0473 11.9863 76.5467 11.1867C77.3866 10.918 77.9509 10.1453 77.9509 9.26517V8.72095H77.9375Z" fill="url(#paint3_linear_274_3360)"/>
<path d="M26.8817 34.0775C28.8906 31.2355 33.4526 30.9667 36.0662 33.0831C36.4828 33.4191 37.0337 33.8894 37.195 34.4134C37.4637 35.2667 36.644 35.9319 35.8445 35.7303C35.3339 35.6027 34.8569 35.3272 34.353 35.1727C33.4325 34.8838 32.7673 34.8031 31.9409 34.8031C30.7181 34.7964 29.932 34.9509 28.7697 35.4213C28.2926 35.6161 27.903 35.9252 27.3587 35.6967C26.7339 35.4347 26.5055 34.6419 26.8817 34.0775ZM57.8283 35.69C57.6334 35.6027 57.4453 35.4952 57.2505 35.4145C56.0545 34.9173 55.3759 34.7897 54.0792 34.7964C52.937 34.8031 52.2584 34.9577 51.3648 35.26C50.8206 35.4481 50.1286 35.9184 49.5239 35.737C48.637 35.4683 48.6639 34.5008 49.1476 33.8827C49.7255 33.157 50.5183 32.6061 51.3581 32.2433C53.3065 31.3967 55.685 31.5177 57.5192 32.6128C58.1172 32.9689 58.7689 33.4594 59.1317 34.0775C59.6558 34.9577 58.863 36.1133 57.8283 35.69Z" fill="#6D4C41"/>
<path d="M76.9297 81.2902C76.9297 71.4741 62.3164 66.818 49.5709 65.7698L43.7928 73.1806C43.6047 73.4225 43.3091 73.5703 43 73.5703C42.6909 73.5703 42.3953 73.4292 42.2072 73.1806L36.4156 65.7564C29.3273 66.3006 9.0636 68.9478 9.0636 81.2902V83.3125H76.923L76.9297 81.2902Z" fill="#212121"/>
<path d="M76.9297 81.2902C76.9297 71.4741 62.3164 66.818 49.5709 65.7698L43.7928 73.1806C43.6047 73.4225 43.3091 73.5703 43 73.5703C42.6909 73.5703 42.3953 73.4292 42.2072 73.1806L36.4156 65.7564C29.3273 66.3006 9.0636 68.9478 9.0636 81.2902V83.3125H76.923L76.9297 81.2902Z" fill="url(#paint4_radial_274_3360)"/>
<defs>
<radialGradient id="paint0_radial_274_3360" cx="0" cy="0" r="1" gradientUnits="userSpaceOnUse" gradientTransform="translate(43.0006 31.3527) scale(25.4459 28.7081)">
<stop offset="0.794" stop-color="#6D4C41" stop-opacity="0"/>
<stop offset="1" stop-color="#6D4C41"/>
</radialGradient>
<linearGradient id="paint1_linear_274_3360" x1="43" y1="0.436056" x2="43" y2="19.6792" gradientUnits="userSpaceOnUse">
<stop offset="0.003" stop-color="#424242"/>
<stop offset="0.472" stop-color="#353535"/>
<stop offset="1" stop-color="#212121"/>
</linearGradient>
<linearGradient id="paint2_linear_274_3360" x1="43" y1="0.54826" x2="43" y2="21.3764" gradientUnits="userSpaceOnUse">
<stop offset="0.003" stop-color="#616161"/>
<stop offset="0.324" stop-color="#505050"/>
<stop offset="0.955" stop-color="#242424"/>
<stop offset="1" stop-color="#212121"/>
</linearGradient>
<linearGradient id="paint3_linear_274_3360" x1="9.33436" y1="12.7542" x2="77.0782" y2="12.7542" gradientUnits="userSpaceOnUse">
<stop offset="0.001" stop-color="#BFBEBE"/>
<stop offset="0.3" stop-color="#212121" stop-opacity="0"/>
<stop offset="0.7" stop-color="#212121" stop-opacity="0"/>
<stop offset="1" stop-color="#BFBEBE"/>
</linearGradient>
<radialGradient id="paint4_radial_274_3360" cx="0" cy="0" r="1" gradientUnits="userSpaceOnUse" gradientTransform="translate(43 82.374) scale(36.3935 19.0956)">
<stop offset="0.598" stop-color="#212121"/>
<stop offset="1" stop-color="#616161"/>
</radialGradient>
</defs>
</svg>
